<?xml version="1.0" encoding="UTF-8" standalone="no"?>
<svg xmlns="http://www.w3.org/2000/svg" width="1200" height="800" viewBox="0 0 1200 800">
  <defs>
    <!-- Soft drop shadow -->
    <filter id="shadow" x="-20%" y="-20%" width="140%" height="140%">
      <feOffset result="offOut" in="SourceAlpha" dx="0" dy="2"/>
      <feGaussianBlur result="blurOut" in="offOut" stdDeviation="4"/>
      <feColorMatrix result="blurOut" type="matrix"
        values="0 0 0 0 0
                0 0 0 0 0
                0 0 0 0 0
                0 0 0 0.25 0"/>
      <feBlend in="SourceGraphic" in2="blurOut" mode="normal"/>
    </filter>

    <!-- Arrowheads -->
    <marker id="arrow" markerWidth="10" markerHeight="10" refX="8" refY="5" orient="auto">
      <path d="M0,0 L10,5 L0,10 z" fill="#3b3b3b"/>
    </marker>
    <marker id="arrow-muted" markerWidth="10" markerHeight="10" refX="8" refY="5" orient="auto">
      <path d="M0,0 L10,5 L0,10 z" fill="#8a8a8a"/>
    </marker>
    <marker id="arrow-dual" markerWidth="10" markerHeight="10" refX="8" refY="5" orient="auto">
      <path d="M0,0 L10,5 L0,10 z" fill="#5b4bdf"/>
    </marker>

    <!-- Box styles as reusable classes -->
    <style><![CDATA[
      .title { font: 700 28px/1.2 Inter, system-ui, -apple-system, Segoe UI, Roboto, sans-serif; fill:#0f172a; }
      .subtitle { font: 600 14px/1.2 Inter, system-ui, -apple-system, Segoe UI, Roboto, sans-serif; fill:#0f172a; }
      .note { font: 12px Inter, system-ui, -apple-system, Segoe UI, Roboto, sans-serif; fill:#334155; }
      .muted { fill:#475569; font: 12px Inter, system-ui, -apple-system, Segoe UI, Roboto, sans-serif; }
      .box text { pointer-events:none; }

      .client { fill:#e0f2fe; stroke:#0284c7; }
      .gateway { fill:#ede9fe; stroke:#5b21b6; }
      .store   { fill:#fef3c7; stroke:#d97706; }
      .store2  { fill:#dcfce7; stroke:#16a34a; }
      .workerA { fill:#cffafe; stroke:#0ea5e9; }
      .workerB { fill:#ffedd5; stroke:#ea580c; }
      .cloudAI { fill:#f1f5f9; stroke:#64748b; }

      .line { stroke:#3b3b3b; stroke-width:2.2; fill:none; }
      .line-muted { stroke:#8a8a8a; stroke-width:2; fill:none; stroke-dasharray:3 4; }
      .line-purple { stroke:#5b4bdf; stroke-width:2.2; fill:none; }
      .label { font: 12px Inter, system-ui, -apple-system, Segoe UI, Roboto, sans-serif; fill:#111827; }
    ]]></style>
  </defs>

  <!-- Title -->
  <text x="600" y="44" text-anchor="middle" class="title">Tabi — System Map (Refined)</text>

  <!-- Boxes -->
  <!-- Frontend -->
  <g class="box" id="frontend">
    <rect x="60" y="110" rx="16" ry="16" width="280" height="130" class="client" stroke-width="1.5" filter="url(#shadow)"/>
    <text x="200" y="138" text-anchor="middle" class="subtitle">Frontend (Next.js)</text>
    <text x="200" y="160" text-anchor="middle" class="note">Redux • Clerk • Razorpay • GA</text>
    <text x="200" y="178" text-anchor="middle" class="note">Routes: /api/ingestion-update, /api/process-update</text>
  </g>

  <!-- int-or (Gateway API) -->
  <g class="box" id="intor">
    <rect x="460" y="90" rx="16" ry="16" width="280" height="150" class="gateway" stroke-width="1.5" filter="url(#shadow)"/>
    <text x="600" y="118" text-anchor="middle" class="subtitle">int-or (Gateway API)</text>
    <text x="600" y="140" text-anchor="middle" class="note">Auth • Orchestration • Signed URLs</text>
    <text x="600" y="158" text-anchor="middle" class="note">Payments • Webhooks</text>
    <text x="600" y="176" text-anchor="middle" class="note">System of Record in Postgres</text>
  </g>

  <!-- GCS -->
  <g class="box" id="gcs">
    <rect x="860" y="110" rx="16" ry="16" width="280" height="130" class="store" stroke-width="1.5" filter="url(#shadow)"/>
    <text x="1000" y="138" text-anchor="middle" class="subtitle">Google Cloud Storage (GCS)</text>
    <text x="1000" y="160" text-anchor="middle" class="note">uploads/ • outputs/ via signed URL</text>
    <text x="1000" y="178" text-anchor="middle" class="note">PUT/GET through int-or</text>
  </g>

  <!-- Postgres -->
  <g class="box" id="pg">
    <rect x="120" y="320" rx="16" ry="16" width="280" height="130" class="store2" stroke-width="1.5" filter="url(#shadow)"/>
    <text x="260" y="348" text-anchor="middle" class="subtitle">Postgres (SoR)</text>
    <text x="260" y="370" text-anchor="middle" class="note">users • sessions • files • experiments</text>
    <text x="260" y="388" text-anchor="middle" class="note">projects • credits • payments • logs</text>
  </g>

  <!-- Ingestion -->
  <g class="box" id="ingestion">
    <rect x="460" y="300" rx="16" ry="16" width="280" height="130" class="workerA" stroke-width="1.5" filter="url(#shadow)"/>
    <text x="600" y="328" text-anchor="middle" class="subtitle">ingestion</text>
    <text x="600" y="350" text-anchor="middle" class="note">Stream CSV from GCS • compute inputIndex</text>
    <text x="600" y="368" text-anchor="middle" class="note">Write 10-row batches to Mongo</text>
  </g>

  <!-- MongoDB -->
  <g class="box" id="mongo">
    <rect x="860" y="300" rx="16" ry="16" width="280" height="130" class="store2" stroke-width="1.5" filter="url(#shadow)"/>
    <text x="1000" y="328" text-anchor="middle" class="subtitle">MongoDB (batches)</text>
    <text x="1000" y="350" text-anchor="middle" class="note">&lt;userId&gt;.&lt;fileId&gt;.&lt;inputIndex&gt;</text>
  </g>

  <!-- Experiment -->
  <g class="box" id="experiment">
    <rect x="340" y="540" rx="16" ry="16" width="260" height="120" class="workerA" stroke-width="1.5" filter="url(#shadow)"/>
    <text x="470" y="566" text-anchor="middle" class="subtitle">experiment (preview)</text>
    <text x="470" y="588" text-anchor="middle" class="note">Generate outputData with OpenAI</text>
    <text x="470" y="606" text-anchor="middle" class="note">Return preview + credits to int-or</text>
  </g>

  <!-- Processing -->
  <g class="box" id="processing">
    <rect x="640" y="540" rx="16" ry="16" width="260" height="120" class="workerB" stroke-width="1.5" filter="url(#shadow)"/>
    <text x="770" y="566" text-anchor="middle" class="subtitle">processing (apply to all)</text>
    <text x="770" y="588" text-anchor="middle" class="note">Iterate batches • OpenAI</text>
    <text x="770" y="606" text-anchor="middle" class="note">Totals &amp; credits • webhook to int-or</text>
  </g>

  <!-- OpenAI Assistant -->
  <g class="box" id="openai">
    <rect x="950" y="555" rx="16" ry="16" width="170" height="90" class="cloudAI" stroke-width="1.5" filter="url(#shadow)"/>
    <text x="1035" y="585" text-anchor="middle" class="subtitle">OpenAI Assistant</text>
  </g>

  <!-- CONNECTORS (clean, non-overlapping) -->

  <!-- Frontend -> int-or -->
  <path class="line" marker-end="url(#arrow)"
        d="M340,175 L460,175"/>
  <text class="label" x="400" y="165" text-anchor="middle">API calls</text>

  <!-- int-or -> GCS -->
  <path class="line" marker-end="url(#arrow)"
        d="M740,175 L860,175"/>
  <text class="label" x="800" y="165" text-anchor="middle">Signed URL</text>

  <!-- int-or ⇄ Postgres -->
  <path class="line-purple" marker-start="url(#arrow-dual)" marker-end="url(#arrow-dual)"
        d="M520,240 C520,285 360,290 360,335 C360,380 520,385 520,430"/>
  <text class="label" x="390" y="330" text-anchor="start">SoR: auth, payments, logs</text>

  <!-- int-or ⇄ ingestion -->
  <path class="line" marker-start="url(#arrow)" marker-end="url(#arrow)"
        d="M600,240 L600,300"/>
  <text class="label" x="610" y="285">trigger/status</text>

  <!-- ingestion -> MongoDB (only direct DB edge) -->
  <path class="line" marker-end="url(#arrow)"
        d="M740,365 L860,365"/>
  <text class="label" x="800" y="355" text-anchor="middle">batches</text>

  <!-- int-or -> experiment (avoid ingestion with elbow) -->
  <path class="line" marker-end="url(#arrow)"
        d="M520,240
           C520,480 470,480 470,540"/>
  <text class="label" x="480" y="505" text-anchor="middle">start preview</text>

  <!-- int-or -> processing -->
  <path class="line" marker-end="url(#arrow)"
        d="M680,240
           C680,480 770,480 770,540"/>
  <text class="label" x="770" y="505" text-anchor="middle">start job</text>

  <!-- experiment -> int-or -->
  <path class="line" marker-end="url(#arrow)"
        d="M470,660 C470,700 600,700 600,650"/>
  <text class="label" x="545" y="695" text-anchor="middle">preview + credits</text>

  <!-- processing -> int-or -->
  <path class="line" marker-end="url(#arrow)"
        d="M770,660 C770,720 600,720 600,650"/>
  <text class="label" x="705" y="710" text-anchor="middle">totals + webhook</text>

  <!-- experiment -> OpenAI -->
  <path class="line-muted" marker-end="url(#arrow-muted)"
        d="M600,600 C750,600 820,600 950,600"/>
  <text class="label" x="820" y="590" text-anchor="middle">LLM calls</text>

  <!-- processing -> OpenAI -->
  <path class="line-muted" marker-end="url(#arrow-muted)"
        d="M900,620 L950,620"/>
  <text class="label" x="925" y="612" text-anchor="middle">LLM calls</text>

  <!-- Legend -->
  <g id="legend">
    <rect x="60" y="680" width="500" height="90" rx="12" ry="12" fill="#ffffff" stroke="#e5e7eb"/>
    <g transform="translate(80,700)">
      <rect x="0" y="-12" width="18" height="18" class="client" stroke-width="1.2"/><text x="26" y="2" class="muted">Client</text>
      <rect x="110" y="-12" width="18" height="18" class="gateway" stroke-width="1.2"/><text x="136" y="2" class="muted">Gateway</text>
      <rect x="220" y="-12" width="18" height="18" class="store" stroke-width="1.2"/><text x="246" y="2" class="muted">Object Store</text>
      <rect x="360" y="-12" width="18" height="18" class="store2" stroke-width="1.2"/><text x="386" y="2" class="muted">DB</text>
    </g>
    <g transform="translate(80,730)">
      <rect x="0" y="-12" width="18" height="18" class="workerA" stroke-width="1.2"/><text x="26" y="2" class="muted">Worker (preview)</text>
      <rect x="180" y="-12" width="18" height="18" class="workerB" stroke-width="1.2"/><text x="206" y="2" class="muted">Worker (apply-all)</text>
      <rect x="380" y="-12" width="18" height="18" class="cloudAI" stroke-width="1.2"/><text x="406" y="2" class="muted">External LLM</text>
    </g>
  </g>
</svg>
